<svg id="Capa_1" enable-background="new 0 0 512 512" height="512" viewBox="0 0 512 512" width="512" xmlns="http://www.w3.org/2000/svg"><g><g><path d="m115.935 0h243.181c17.6 0 31.867 14.267 31.867 31.867v465.133c0 8.284-6.716 15-15 15h-352.365c-8.284 0-15-6.716-15-15v-389.671l71.301-31.307z" fill="#eaf4ff"/><g fill="#cde7fc"><path d="m100.935 107.317h-92.317l107.317-107.317v92.317c0 8.284-6.716 15-15 15z"/><path d="m375.983 0h-176.182v512h176.182c8.284 0 15-6.716 15-15v-482c0-8.284-6.716-15-15-15z"/></g></g><ellipse cx="390.983" cy="399.601" fill="#f02b6c" rx="112.399" ry="112.399" transform="matrix(.973 -.23 .23 .973 -81.35 100.519)"/><path d="m390.983 287.203c-61.977 0-112.399 50.422-112.399 112.399" fill="#f02b6c"/><g fill="#5b6bac"><path d="m88.808 191.029h221.986c8.284 0 15-6.716 15-15s-6.716-15-15-15h-221.986c-8.284 0-15 6.716-15 15s6.716 15 15 15z"/><path d="m310.794 221.029h-221.986c-8.284 0-15 6.716-15 15s6.716 15 15 15h221.986c8.284 0 15-6.716 15-15s-6.716-15-15-15z"/><path d="m225.974 281.029h-137.166c-8.284 0-15 6.716-15 15s6.716 15 15 15h137.166c8.284 0 15-6.716 15-15s-6.716-15-15-15z"/><path d="m225.974 341.029h-137.166c-8.284 0-15 6.716-15 15s6.716 15 15 15h137.166c8.284 0 15-6.716 15-15s-6.716-15-15-15z"/><path d="m225.974 401.029h-137.166c-8.284 0-15 6.716-15 15s6.716 15 15 15h137.166c8.284 0 15-6.716 15-15s-6.716-15-15-15z"/></g><g fill="#203f7c"><path d="m225.974 401.029h-26.173v30h26.173c8.284 0 15-6.716 15-15s-6.716-15-15-15z"/><path d="m225.974 341.029h-26.173v30h26.173c8.284 0 15-6.716 15-15s-6.716-15-15-15z"/><path d="m225.974 281.029h-26.173v30h26.173c8.284 0 15-6.716 15-15s-6.716-15-15-15z"/><path d="m310.794 221.029h-110.993v30h110.993c8.284 0 15-6.716 15-15s-6.716-15-15-15z"/><path d="m310.794 161.029h-110.993v30h110.993c8.284 0 15-6.716 15-15s-6.716-15-15-15z"/></g><path d="m390.983 287.203v224.797c61.977 0 112.398-50.422 112.398-112.398.001-61.977-50.421-112.399-112.398-112.399z" fill="#cd175b"/><path d="m430.644 384.602h-24.661v-24.662c0-8.284-6.716-15-15-15s-15 6.716-15 15v24.662h-24.662c-8.284 0-15 6.716-15 15s6.716 15 15 15h24.662v24.661c0 8.284 6.716 15 15 15s15-6.716 15-15v-24.661h24.661c8.284 0 15-6.716 15-15s-6.715-15-15-15z" fill="#ffe278"/><path d="m430.644 384.602h-24.661v-24.662c0-8.284-6.716-15-15-15v109.323c8.284 0 15-6.716 15-15v-24.661h24.661c8.284 0 15-6.716 15-15s-6.715-15-15-15z" fill="#ffb454"/></g></svg>